<svg width="97" height="120" viewBox="0 0 97 120" fill="none" xmlns="http://www.w3.org/2000/svg">
<g opacity="1">
<path d="M46.8334 99.7233H49.1719C50.5648 99.7233 51.2612 100.356 51.2612 101.621V109.921C51.2612 111.186 50.5648 111.818 49.1719 111.818H46.8334C45.4406 111.818 44.7441 111.186 44.7441 109.921V101.621C44.7441 100.356 45.4406 99.7233 46.8334 99.7233ZM49.0569 109.614V101.928C49.0569 101.723 49.0186 101.589 48.9419 101.525C48.8652 101.448 48.7247 101.41 48.5202 101.41H47.5043C47.2871 101.41 47.1401 101.448 47.0634 101.525C46.9868 101.589 46.9484 101.723 46.9484 101.928V109.614C46.9484 109.818 46.9868 109.959 47.0634 110.036C47.1401 110.1 47.2871 110.131 47.5043 110.131H48.5202C48.7247 110.131 48.8652 110.1 48.9419 110.036C49.0186 109.959 49.0569 109.818 49.0569 109.614Z" fill="#66fcf1"/>
<path d="M55.0509 99.7233H57.3894C58.7822 99.7233 59.4786 100.356 59.4786 101.621V109.921C59.4786 111.186 58.7822 111.818 57.3894 111.818H55.0509C53.658 111.818 52.9616 111.186 52.9616 109.921V101.621C52.9616 100.356 53.658 99.7233 55.0509 99.7233ZM57.2743 109.614V101.928C57.2743 101.723 57.236 101.589 57.1593 101.525C57.0827 101.448 56.9421 101.41 56.7376 101.41H55.7218C55.5045 101.41 55.3576 101.448 55.2809 101.525C55.2042 101.589 55.1659 101.723 55.1659 101.928V109.614C55.1659 109.818 55.2042 109.959 55.2809 110.036C55.3576 110.1 55.5045 110.131 55.7218 110.131H56.7376C56.9421 110.131 57.0827 110.1 57.1593 110.036C57.236 109.959 57.2743 109.818 57.2743 109.614Z" fill="#66fcf1"/>
<path d="M61.2557 99.7233H65.7026C67.0955 99.7233 67.7919 100.356 67.7919 101.621V105.474C67.7919 106.739 67.0955 107.371 65.7026 107.371H63.46V111.818H61.2557V99.7233ZM65.5876 105.167V101.928C65.5876 101.723 65.5493 101.589 65.4726 101.525C65.396 101.448 65.2554 101.41 65.0509 101.41H63.46V105.685H65.0509C65.2554 105.685 65.396 105.653 65.4726 105.589C65.5493 105.512 65.5876 105.371 65.5876 105.167Z" fill="#66fcf1"/>
<path d="M73.0447 109.614V107.026C73.0447 106.822 73.0063 106.688 72.9297 106.624C72.853 106.547 72.7124 106.509 72.508 106.509H70.9554C69.6392 106.509 68.9811 105.87 68.9811 104.592V101.621C68.9811 100.356 69.6711 99.7233 71.0512 99.7233H73.1597C74.5397 99.7233 75.2298 100.356 75.2298 101.621V103.308H73.0063V101.928C73.0063 101.723 72.968 101.589 72.8913 101.525C72.8146 101.448 72.6741 101.41 72.4696 101.41H71.7413C71.524 101.41 71.3771 101.448 71.3004 101.525C71.2237 101.589 71.1854 101.723 71.1854 101.928V104.362C71.1854 104.566 71.2237 104.707 71.3004 104.784C71.3771 104.848 71.524 104.879 71.7413 104.879H73.2555C74.5973 104.879 75.2681 105.506 75.2681 106.758V109.921C75.2681 111.186 74.5717 111.818 73.1788 111.818H71.1087C69.7159 111.818 69.0194 111.186 69.0194 109.921V108.253H71.2237V109.614C71.2237 109.818 71.2621 109.959 71.3387 110.036C71.4154 110.1 71.5624 110.131 71.7796 110.131H72.508C72.7124 110.131 72.853 110.1 72.9297 110.036C73.0063 109.959 73.0447 109.818 73.0447 109.614Z" fill="#66fcf1"/>
<path d="M77.0203 111.818V109.231H79.3396V111.818H77.0203ZM76.9053 99.7233H79.4738L79.0905 107.755H77.2887L76.9053 99.7233Z" fill="#66fcf1"/>
<path fill-rule="evenodd" clip-rule="evenodd" d="M55.7106 87L61.2014 91.2117L66.515 87.0319L72.3323 90.9193L77.6135 87.0749L83.5145 90.7823L88.4142 87.1244L96.7665 91.421V115.345L96.7665 115.349C96.7642 116.425 96.3693 117.478 95.6341 118.273C94.8951 119.072 93.866 119.547 92.7643 119.547H29.6566C28.5546 119.547 27.5257 119.072 26.7877 118.272C26.0534 117.476 25.6602 116.421 25.6602 115.345V90.7061L33.8955 87.1862L39.1458 90.7685L44.2969 87.0715L50.3888 90.9957L55.7106 87ZM28.7517 92.7469V115.345C28.7517 115.678 28.8749 115.975 29.0598 116.175C29.2409 116.371 29.4587 116.456 29.6566 116.456H92.7643C92.9635 116.456 93.1824 116.371 93.3644 116.174C93.55 115.974 93.6738 115.677 93.6749 115.344C93.6749 115.343 93.6749 115.343 93.6749 115.342V93.3073L88.7167 90.7566L83.6651 94.528L77.7409 90.8061L72.408 94.6882L66.6629 90.8491L61.2253 95.1264L55.6906 90.881L50.524 94.7603L44.3909 90.8095L39.1906 94.5418L33.5526 90.6949L28.7517 92.7469Z" fill="#66fcf1"/>
<path fill-rule="evenodd" clip-rule="evenodd" d="M29.3363 26.9768C28.9994 27.7354 28.7517 28.8912 28.7517 30.2483V81.9683L33.9058 79.4992L38.7367 83.1557L44.4058 79.2505L49.6645 83.3971L55.2045 79.4571L61.1139 83.4029L65.937 79.4063L72.2246 82.852L77.0454 79.1189L83.4279 83.1046L87.8952 79.1379L93.6749 82.1469V35.7806H96.7665V87.2418L88.356 82.8632L83.7516 86.9517L77.235 82.8822L72.5156 86.5368L66.2927 83.1266L61.3128 87.2531L55.2598 83.2115L49.5689 87.2588L44.282 83.0899L38.6515 86.9685L33.5423 83.1014L25.6602 86.8774V30.2483C25.6602 28.5621 25.9609 26.9602 26.5109 25.722C26.7849 25.1048 27.1514 24.5095 27.6364 24.0475C28.1293 23.578 28.8146 23.1872 29.6566 23.1872H80.8877V26.2788H29.7764C29.774 26.2811 29.7714 26.2835 29.7687 26.2861C29.6673 26.3827 29.5056 26.5956 29.3363 26.9768Z" fill="#66fcf1"/>
<path fill-rule="evenodd" clip-rule="evenodd" d="M94.8829 38.3132L78.8066 25.6377L80.7208 23.21L96.797 35.8854L94.8829 38.3132Z" fill="#66fcf1"/>
<path fill-rule="evenodd" clip-rule="evenodd" d="M80.9987 25.9696V31.8526C80.9987 33.3454 81.2639 34.6367 81.6423 35.5085C81.8324 35.9464 82.0269 36.2226 82.1798 36.3717C82.2555 36.4456 82.3031 36.4724 82.323 36.481H94.6016V38.9542H82.3052C81.5416 38.9542 80.9141 38.5919 80.4532 38.1426C79.9979 37.6986 79.6441 37.1165 79.3736 36.4934C78.8309 35.2433 78.5254 33.6021 78.5254 31.8526V25.9696H80.9987ZM82.3337 36.4846C82.3337 36.4848 82.3315 36.4844 82.3273 36.4827C82.3315 36.4835 82.3337 36.4843 82.3337 36.4846Z" fill="#66fcf1"/>
<path fill-rule="evenodd" clip-rule="evenodd" d="M18.5524 0.0922078C19.1846 -0.166133 19.9066 0.136963 20.1649 0.769191L26.4965 16.2642C26.7548 16.8964 26.4517 17.6184 25.8195 17.8767C25.1873 18.1351 24.4653 17.832 24.207 17.1997L17.8754 1.70473C17.6171 1.0725 17.9202 0.350549 18.5524 0.0922078Z" fill="#66fcf1"/>
<path fill-rule="evenodd" clip-rule="evenodd" d="M5.6084 5.26415C6.09567 4.78558 6.87863 4.79264 7.35719 5.27991L19.2536 17.3927C19.7322 17.88 19.7251 18.663 19.2378 19.1415C18.7506 19.6201 17.9676 19.613 17.489 19.1258L5.59264 7.01294C5.11407 6.52567 5.12113 5.74271 5.6084 5.26415Z" fill="#66fcf1"/>
<path fill-rule="evenodd" clip-rule="evenodd" d="M0.0928054 18.6618C0.351953 18.0299 1.07429 17.7278 1.70619 17.9869L16.8735 24.2072C17.5054 24.4663 17.8076 25.1887 17.5484 25.8206C17.2893 26.4525 16.5669 26.7546 15.935 26.4955L0.76773 20.2752C0.135831 20.0161 -0.166342 19.2937 0.0928054 18.6618Z" fill="#66fcf1"/>
<path fill-rule="evenodd" clip-rule="evenodd" d="M43.8954 45.6877C44.2744 45.3432 44.861 45.3711 45.2056 45.7501L51.3887 52.5516C51.7333 52.9306 51.7053 53.5172 51.3263 53.8618C50.9473 54.2063 50.3607 54.1784 50.0162 53.7994L43.833 46.9979C43.4884 46.6189 43.5164 46.0323 43.8954 45.6877Z" fill="#66fcf1"/>
<path fill-rule="evenodd" clip-rule="evenodd" d="M51.3263 45.6877C51.7053 46.0323 51.7333 46.6189 51.3887 46.9979L45.2056 53.7994C44.861 54.1784 44.2744 54.2063 43.8954 53.8618C43.5164 53.5172 43.4884 52.9306 43.833 52.5516L50.0162 45.7501C50.3607 45.3711 50.9473 45.3432 51.3263 45.6877Z" fill="#66fcf1"/>
<path fill-rule="evenodd" clip-rule="evenodd" d="M70.4513 45.7182C70.8135 45.356 71.4008 45.356 71.763 45.7182L78.5645 52.5197C78.9267 52.8819 78.9267 53.4692 78.5645 53.8314C78.2023 54.1936 77.615 54.1936 77.2528 53.8314L70.4513 47.0299C70.0891 46.6677 70.0891 46.0804 70.4513 45.7182Z" fill="#66fcf1"/>
<path fill-rule="evenodd" clip-rule="evenodd" d="M78.5645 45.7182C78.9267 46.0804 78.9267 46.6677 78.5645 47.0299L71.763 53.8314C71.4008 54.1936 70.8135 54.1936 70.4513 53.8314C70.0891 53.4692 70.0891 52.8819 70.4513 52.5197L77.2528 45.7182C77.615 45.356 78.2023 45.356 78.5645 45.7182Z" fill="#66fcf1"/>
<path fill-rule="evenodd" clip-rule="evenodd" d="M60.7187 64.9302C66.469 64.7333 69.807 69.0091 70.0017 69.272C70.4083 69.8209 71.1827 69.9362 71.7315 69.5297C72.2803 69.1231 72.3957 68.3487 71.9892 67.7999C71.6894 67.3952 67.6718 62.2136 60.6266 62.4586L60.6205 62.4588L60.6143 62.4591C58.6338 62.5477 56.6948 63.057 54.9263 63.9529C53.1578 64.8489 51.6003 66.111 50.3573 67.6555C49.9291 68.1876 50.0133 68.966 50.5453 69.3942C51.0774 69.8224 51.8558 69.7382 52.284 69.2062C53.3069 67.9352 54.5887 66.8965 56.044 66.1592C57.4976 65.4228 59.091 65.0039 60.7187 64.9302Z" fill="#66fcf1"/>
</g>
</svg>
